# xmcd
#
# Track frame offsets: 
#        150
#        11995
#        24481
#        37082
#        49951
#        67017
#        78517
#        88666
#        99637
#        109758
#        121265
#        129669
#        143764
#        156835
#        170745
#        196497
#        211407
#        224192
#        239367
#        255179
#        272722
#
# Disc length: 3854 seconds
#
# Revision: 0
# Processed by: cddbd v1.5.2PL0 Copyright (c) Steve Scherf et al.
# Submitted via: ExactAudioCopy v1.0b3
#
DISCID=3f0f0c15
DTITLE=Johnny Cash - The Legend of Johnny Cash
DYEAR=2005
DGENRE=Country
TTITLE0=Ring Of Fire (Album Version)
TTITLE1=I Walk The Line (Single Version)
TTITLE2=Jackson
TTITLE3=Folsom Prison Blues
TTITLE4=A Boy Named Sue
TTITLE5=Big River
TTITLE6=Get Rhythm
TTITLE7=Cry! Cry! Cry!
TTITLE8=Hey Porter
TTITLE9=A Thing Called Love (Original Version)
TTITLE10=Guess Things Happen That Way (1958 Single Version)
TTITLE11=San Quentin (Live Version)
TTITLE12=Man In Black (Single Version)
TTITLE13=Highwayman (Album Version)
TTITLE14=The Wanderer [feat. Johnny Cash]
TTITLE15=I've Been Everywhere (Album Version)
TTITLE16=Rusty Cage (Album Version)
TTITLE17=Personal Jesus (Album Version)
TTITLE18=Give My Love To Rose (Album Version)
TTITLE19=One (Album Version)
TTITLE20=Hurt (Album Version)
EXTD=
EXTT0=
EXTT1=
EXTT2=
EXTT3=
EXTT4=
EXTT5=
EXTT6=
EXTT7=
EXTT8=
EXTT9=
EXTT10=
EXTT11=
EXTT12=
EXTT13=
EXTT14=
EXTT15=
EXTT16=
EXTT17=
EXTT18=
EXTT19=
EXTT20=
PLAYORDER=
